<?xml version="1.0" encoding="UTF-8" standalone="no"?>
<svg
   width="245.4016"
   zoomAndPan="magnify"
   viewBox="0 0 184.0512 27.171867"
   height="36.229156"
   preserveAspectRatio="xMidYMid"
   version="1.0"
   id="svg46"
   sodipodi:docname="logo.svg"
   xmlns:inkscape="http://www.inkscape.org/namespaces/inkscape"
   xmlns:sodipodi="http://sodipodi.sourceforge.net/DTD/sodipodi-0.dtd"
   xmlns="http://www.w3.org/2000/svg"
   xmlns:svg="http://www.w3.org/2000/svg">
  <sodipodi:namedview
     id="namedview46"
     pagecolor="#ffffff"
     bordercolor="#999999"
     borderopacity="1"
     inkscape:showpageshadow="2"
     inkscape:pageopacity="0"
     inkscape:pagecheckerboard="0"
     inkscape:deskcolor="#d1d1d1" />
  <defs
     id="defs4" />
  <g
     fill="#000000"
     fill-opacity="1"
     id="g15"
     transform="translate(-82.55944,-171.7979)">
    <g
       transform="translate(145.36522,191.65728)"
       id="g14">
      <g
         id="g13">
        <path
           d="M 22.78125,-19.53125 14.703125,0 h -7.0625 l -8.03125,-19.53125 H 6.625 L 11.3125,-7.609375 16.25,-19.53125 Z m 0,0"
           id="path13" />
      </g>
    </g>
  </g>
  <g
     fill="#000000"
     fill-opacity="1"
     id="g18"
     transform="translate(-82.55944,-171.7979)">
    <g
       transform="translate(164.17802,191.65728)"
       id="g17">
      <g
         id="g16">
        <path
           d="m 12,0.328125 c -2.085938,0 -3.96875,-0.429687 -5.65625,-1.296875 C 4.664062,-1.832031 3.347656,-3.035156 2.390625,-4.578125 1.441406,-6.117188 0.96875,-7.863281 0.96875,-9.8125 c 0,-1.914062 0.472656,-3.640625 1.421875,-5.171875 0.957031,-1.539063 2.269531,-2.738281 3.9375,-3.59375 1.664063,-0.851563 3.554687,-1.28125 5.671875,-1.28125 2.113281,0 4.007812,0.429687 5.6875,1.28125 1.6875,0.855469 3,2.046875 3.9375,3.578125 0.9375,1.523438 1.40625,3.25 1.40625,5.1875 0,1.949219 -0.46875,3.695312 -1.40625,5.234375 -0.9375,1.542969 -2.25,2.746094 -3.9375,3.609375 C 16.007812,-0.101562 14.113281,0.328125 12,0.328125 Z M 12,-5.125 c 1.207031,0 2.191406,-0.410156 2.953125,-1.234375 0.769531,-0.832031 1.15625,-1.984375 1.15625,-3.453125 0,-1.4375 -0.386719,-2.5625 -1.15625,-3.375 -0.761719,-0.820312 -1.746094,-1.234375 -2.953125,-1.234375 -1.199219,0 -2.183594,0.414063 -2.953125,1.234375 -0.773437,0.8125 -1.15625,1.9375 -1.15625,3.375 0,1.46875 0.382813,2.621094 1.15625,3.453125 C 9.816406,-5.535156 10.800781,-5.125 12,-5.125 Z m 0,0"
           id="path15" />
      </g>
    </g>
  </g>
  <g
     fill="#000000"
     fill-opacity="1"
     id="g21"
     transform="translate(-82.55944,-171.7979)">
    <g
       transform="translate(184.64864,191.65728)"
       id="g20">
      <g
         id="g19">
        <path
           d="M 22.78125,-19.53125 14.34375,0.796875 C 13.363281,3.191406 12.160156,4.875 10.734375,5.84375 9.316406,6.820312 7.585938,7.3125 5.546875,7.3125 c -1.03125,0 -2.074219,-0.164062 -3.125,-0.484375 -1.042969,-0.324219 -1.886719,-0.75 -2.53125,-1.28125 L 2.265625,0.75 c 0.382813,0.363281 0.847656,0.644531 1.390625,0.84375 0.539062,0.207031 1.085938,0.3125 1.640625,0.3125 0.644531,0 1.175781,-0.132812 1.59375,-0.390625 C 7.316406,1.253906 7.675781,0.832031 7.96875,0.25 L -0.390625,-19.53125 H 6.625 L 11.421875,-7.609375 16.25,-19.53125 Z m 0,0"
           id="path18" />
      </g>
    </g>
  </g>
  <g
     fill="#000000"
     fill-opacity="1"
     id="g24"
     transform="translate(-82.55944,-171.7979)">
    <g
       transform="translate(203.46144,191.65728)"
       id="g23">
      <g
         id="g22">
        <path
           d="m 10.53125,-19.859375 c 3.238281,0 5.710938,0.742187 7.421875,2.21875 1.707031,1.480469 2.5625,3.746094 2.5625,6.796875 V 0 H 14.125 V -2.515625 C 13.144531,-0.617188 11.222656,0.328125 8.359375,0.328125 6.847656,0.328125 5.539062,0.0625 4.4375,-0.46875 3.332031,-1 2.492188,-1.710938 1.921875,-2.609375 c -0.5625,-0.90625 -0.84375,-1.9375 -0.84375,-3.09375 0,-1.84375 0.707031,-3.273437 2.125,-4.296875 1.414063,-1.019531 3.601563,-1.53125 6.5625,-1.53125 h 3.890625 c -0.117188,-2.070312 -1.496094,-3.109375 -4.140625,-3.109375 -0.9375,0 -1.886719,0.152344 -2.84375,0.453125 -0.960937,0.304688 -1.777344,0.71875 -2.453125,1.25 l -2.3125,-4.65625 c 1.082031,-0.71875 2.398438,-1.273438 3.953125,-1.671875 1.550781,-0.394531 3.109375,-0.59375 4.671875,-0.59375 z M 10.265625,-4 c 0.800781,0 1.5,-0.191406 2.09375,-0.578125 0.601563,-0.382813 1.035156,-0.945313 1.296875,-1.6875 V -7.96875 h -2.953125 c -1.992187,0 -2.984375,0.664062 -2.984375,1.984375 0,0.605469 0.222656,1.089844 0.671875,1.453125 C 8.847656,-4.175781 9.472656,-4 10.265625,-4 Z m 0,0"
           id="path21" />
      </g>
    </g>
  </g>
  <g
     fill="#000000"
     fill-opacity="1"
     id="g27"
     transform="translate(-82.55944,-171.7979)">
    <g
       transform="translate(222.56256,191.65728)"
       id="g26">
      <g
         id="g25">
        <path
           d="M 23.21875,-19.53125 V -3.5625 c 0,3.625 -0.992188,6.34375 -2.96875,8.15625 C 18.28125,6.40625 15.445312,7.3125 11.75,7.3125 9.832031,7.3125 8.03125,7.09375 6.34375,6.65625 4.664062,6.226562 3.234375,5.597656 2.046875,4.765625 l 2.5,-4.796875 c 0.789063,0.644531 1.789063,1.148438 3,1.515625 1.21875,0.375 2.414063,0.5625 3.59375,0.5625 1.800781,0 3.117187,-0.398437 3.953125,-1.1875 0.84375,-0.7929688 1.265625,-1.96875 1.265625,-3.53125 V -3.3125 c -1.324219,1.53125 -3.257813,2.296875 -5.796875,2.296875 -1.730469,0 -3.328125,-0.390625 -4.796875,-1.171875 -1.46875,-0.78125 -2.636719,-1.882812 -3.5,-3.3125 -0.867187,-1.425781 -1.296875,-3.078125 -1.296875,-4.953125 0,-1.851563 0.429688,-3.492187 1.296875,-4.921875 0.863281,-1.425781 2.03125,-2.53125 3.5,-3.3125 1.46875,-0.78125 3.066406,-1.171875 4.796875,-1.171875 2.789062,0 4.832031,0.902344 6.125,2.703125 v -2.375 z M 12.1875,-6.453125 c 1.21875,0 2.226562,-0.367187 3.03125,-1.109375 0.8125,-0.75 1.21875,-1.710938 1.21875,-2.890625 0,-1.175781 -0.398438,-2.128906 -1.1875,-2.859375 -0.792969,-0.738281 -1.8125,-1.109375 -3.0625,-1.109375 -1.25,0 -2.28125,0.371094 -3.09375,1.109375 -0.804688,0.730469 -1.203125,1.683594 -1.203125,2.859375 0,1.179687 0.40625,2.140625 1.21875,2.890625 0.820313,0.742188 1.847656,1.109375 3.078125,1.109375 z m 0,0"
           id="path24" />
      </g>
    </g>
  </g>
  <g
     fill="#000000"
     fill-opacity="1"
     id="g30"
     transform="translate(-82.55944,-171.7979)">
    <g
       transform="translate(244.43875,191.65728)"
       id="g29">
      <g
         id="g28">
        <path
           d="m 22.171875,-9.734375 c 0,0.054687 -0.03906,0.621094 -0.109375,1.703125 H 7.859375 c 0.289063,1 0.847656,1.773438 1.671875,2.3125 0.832031,0.542969 1.875,0.8125 3.125,0.8125 0.9375,0 1.742188,-0.128906 2.421875,-0.390625 C 15.765625,-5.566406 16.457031,-6 17.15625,-6.59375 l 3.609375,3.75 C 18.867188,-0.726562 16.09375,0.328125 12.4375,0.328125 10.15625,0.328125 8.148438,-0.101562 6.421875,-0.96875 4.691406,-1.832031 3.347656,-3.035156 2.390625,-4.578125 1.441406,-6.117188 0.96875,-7.863281 0.96875,-9.8125 c 0,-1.914062 0.460938,-3.632812 1.390625,-5.15625 0.925781,-1.53125 2.207031,-2.726562 3.84375,-3.59375 1.632813,-0.863281 3.472656,-1.296875 5.515625,-1.296875 1.945312,0 3.710938,0.402344 5.296875,1.203125 1.582031,0.804688 2.835937,1.96875 3.765625,3.5 0.925781,1.523438 1.390625,3.328125 1.390625,5.421875 z M 11.75,-15 c -1.054688,0 -1.9375,0.304688 -2.65625,0.90625 -0.710938,0.605469 -1.15625,1.421875 -1.34375,2.453125 h 8 c -0.1875,-1.03125 -0.636719,-1.847656 -1.34375,-2.453125 C 13.695312,-14.695312 12.8125,-15 11.75,-15 Z m 0,0"
           id="path27" />
      </g>
    </g>
  </g>
  <g
     fill="#000000"
     fill-opacity="1"
     id="g33"
     transform="translate(-88.332455,-171.9854)">
    <g
       transform="translate(86.676203,191.65728)"
       id="g32">
      <g
         id="g31">
        <path
           d="m 11.421875,0.1875 c -1.875,0 -3.554687,-0.40625 -5.03125,-1.21875 -1.46875,-0.820312 -2.625,-1.972656 -3.46875,-3.453125 -0.84375,-1.476563 -1.265625,-3.144531 -1.265625,-5 0,-1.84375 0.421875,-3.5 1.265625,-4.96875 0.84375,-1.46875 2,-2.609375 3.46875,-3.421875 1.476563,-0.820312 3.15625,-1.234375 5.03125,-1.234375 1.632813,0 3.09375,0.324219 4.375,0.96875 1.289063,0.636719 2.3125,1.5625 3.0625,2.78125 L 16.9375,-14.0625 c -0.625,-0.9375 -1.417969,-1.640625 -2.375,-2.109375 -0.960938,-0.46875 -2.007812,-0.703125 -3.140625,-0.703125 -1.367187,0 -2.59375,0.308594 -3.6875,0.921875 -1.09375,0.617187 -1.949219,1.492187 -2.5625,2.625 -0.617187,1.125 -0.921875,2.40625 -0.921875,3.84375 0,1.46875 0.304688,2.765625 0.921875,3.890625 0.613281,1.117188 1.46875,1.980469 2.5625,2.59375 1.09375,0.605469 2.320313,0.90625 3.6875,0.90625 1.132813,0 2.179687,-0.222656 3.140625,-0.671875 0.957031,-0.457031 1.75,-1.15625 2.375,-2.09375 l 1.921875,1.296875 c -0.75,1.21875 -1.777344,2.152344 -3.078125,2.796875 C 14.488281,-0.128906 13.035156,0.1875 11.421875,0.1875 Z m 0,0"
           id="path30" />
      </g>
    </g>
  </g>
  <g
     fill="#000000"
     fill-opacity="1"
     id="g36"
     transform="translate(-88.332455,-171.9854)">
    <g
       transform="translate(103.43473,191.65728)"
       id="g35">
      <g
         id="g34">
        <path
           d="m 11.3125,0.1875 c -1.824219,0 -3.46875,-0.414062 -4.9375,-1.25 C 4.914062,-1.894531 3.765625,-3.039062 2.921875,-4.5 2.078125,-5.96875 1.65625,-7.628906 1.65625,-9.484375 c 0,-1.84375 0.421875,-3.5 1.265625,-4.96875 0.84375,-1.46875 1.992187,-2.609375 3.453125,-3.421875 1.46875,-0.820312 3.113281,-1.234375 4.9375,-1.234375 1.832031,0 3.476562,0.414063 4.9375,1.234375 1.46875,0.8125 2.613281,1.953125 3.4375,3.421875 0.832031,1.46875 1.25,3.125 1.25,4.96875 0,1.855469 -0.417969,3.515625 -1.25,4.984375 -0.824219,1.460938 -1.96875,2.605469 -3.4375,3.4375 -1.460938,0.835938 -3.105469,1.25 -4.9375,1.25 z m 0,-2.28125 c 1.351562,0 2.5625,-0.300781 3.625,-0.90625 1.070312,-0.613281 1.90625,-1.484375 2.5,-2.609375 0.601562,-1.132813 0.90625,-2.425781 0.90625,-3.875 0,-1.4375 -0.304688,-2.71875 -0.90625,-3.84375 -0.59375,-1.132813 -1.429688,-2.007813 -2.5,-2.625 -1.0625,-0.613281 -2.273438,-0.921875 -3.625,-0.921875 -1.34375,0 -2.554688,0.308594 -3.625,0.921875 -1.0625,0.617187 -1.902344,1.492187 -2.515625,2.625 -0.617187,1.125 -0.921875,2.40625 -0.921875,3.84375 0,1.449219 0.304688,2.742187 0.921875,3.875 C 5.785156,-4.484375 6.625,-3.613281 7.6875,-3 c 1.070312,0.605469 2.28125,0.90625 3.625,0.90625 z m 0,0"
           id="path33" />
      </g>
    </g>
  </g>
  <path
     fill="#000000"
     d="m 48.19028,5.6114006 c -0.012,3.30557 0.67959,2.80483 -3.45755,2.85249 l -0.16394,-0.28316 v -2.56933 z m -3.9434,2.56933 h -1.17736 c -1.90463,-2.1222 -0.61997,-2.32788 1.17736,-2.56933 z m -2.64384,3.2668004 c 1.37111,0 2.48289,1.12371 2.48289,2.51267 0,0.16991 -0.0179,0.33981 -0.0507,0.50075 h 12.56344 c 0.0388,0 0.0834,0 0.1252,0 -0.033,-0.16094 -0.0508,-0.33084 -0.0508,-0.50075 0,-1.38896 1.11178,-2.51267 2.48288,-2.51267 1.37408,0 2.48586,1.12371 2.48586,2.51267 0,0.16991 -0.015,0.33981 -0.0507,0.50075 h 0.81371 c 1.41877,-5.4813904 -1.51713,-5.1088104 -5.29961,-6.1073504 -3.14755,-3.55887 -8.78993,-4.25934 -16.6201,-2.8346 -0.51268,3.1476 -2.49183,5.4188404 -1.67216,8.3666904 l 0.30404,0.0299 c 0.0237,-1.36516 1.12671,-2.46799 2.48586,-2.46799 z m 14.1283,-2.4500904 -6.2564,-0.38155 c -0.66469,0 -0.5544,-2.06558 -0.53652,-3.03428 2.78095,0.12817 5.04922,0.93293 6.79292,2.41133 z m 0,0"
     fill-opacity="1"
     fill-rule="evenodd"
     id="path42"
     style="fill:#666666;stroke-width:0.999993" />
  <path
     fill="#000000"
     d="m 43.67161,13.960201 c 0,-1.15946 -0.92698,-2.09835 -2.06857,-2.09835 -1.14754,0 -2.07453,0.93889 -2.07453,2.09835 0,1.15653 0.92699,2.0984 2.07453,2.0984 1.14159,0 2.06857,-0.94187 2.06857,-2.0984 z m 0,0"
     fill-opacity="1"
     fill-rule="evenodd"
     id="path43"
     style="fill:#333333;stroke-width:0.999993" />
  <path
     fill="#000000"
     d="m 57.0458,13.960201 c 0,1.18037 0.94784,2.14014 2.1103,2.14014 1.17138,0 2.11328,-0.95977 2.11328,-2.14014 0,-1.18329 -0.9419,-2.13712 -2.11328,-2.13712 -1.16246,0 -2.1103,0.95383 -2.1103,2.13712 z m 0,0"
     fill-opacity="1"
     fill-rule="evenodd"
     id="path44"
     style="fill:#333333;stroke-width:0.999993" />
</svg>
